<svg xmlns="http://www.w3.org/2000/svg" viewBox="0 0 1200 600" role="img" aria-labelledby="title desc">
  <title id="title">Oud collection banner artwork</title><desc id="desc">A stylized amber oud perfume bottle surrounded by warm golden light.</desc><defs><linearGradient id="bg" x1="0" y1="0" x2="1" y2="1"><stop stop-color="#302117"/><stop offset="1" stop-color="#c28742"/></linearGradient><linearGradient id="bottle" x1="0" y1="0" x2="1" y2="1"><stop stop-color="#f4d79a"/><stop offset=".48" stop-color="#7e421c"/><stop offset="1" stop-color="#392014"/></linearGradient><filter id="shadow" x="-30%" y="-30%" width="160%" height="180%"><feGaussianBlur in="SourceAlpha" stdDeviation="18"/><feOffset dy="22"/><feComponentTransfer><feFuncA type="linear" slope=".3"/></feComponentTransfer><feMerge><feMergeNode/><feMergeNode in="SourceGraphic"/></feMerge></filter></defs><rect width="1200" height="600" fill="url(#bg)"/><circle cx="960" cy="130" r="220" fill="#fff" opacity=".12"/><circle cx="705" cy="520" r="250" fill="#24160e" opacity=".18"/><g filter="url(#shadow)" transform="translate(730 55)"><ellipse cx="220" cy="488" rx="155" ry="27" fill="#21140d" opacity=".26"/><rect x="170" y="25" width="100" height="52" rx="10" fill="#d6bd8b"/><rect x="185" y="70" width="70" height="77" rx="11" fill="#2c2119"/><path d="M100 170Q100 145 125 145H315Q340 145 340 170V430Q340 456 314 456H126Q100 456 100 430Z" fill="url(#bottle)" stroke="#fff" stroke-opacity=".45" stroke-width="4"/><rect x="124" y="289" width="192" height="105" fill="#f7eee0" opacity=".95"/><text x="220" y="333" text-anchor="middle" font-family="Georgia,serif" font-size="23" letter-spacing="6" fill="#332119">AURELIA</text><text x="220" y="370" text-anchor="middle" font-family="Arial,sans-serif" font-size="23" font-weight="700" letter-spacing="2" fill="#332119">ROYAL OUD</text></g><text x="90" y="195" font-family="Arial,sans-serif" font-size="20" letter-spacing="6" fill="#fff" opacity=".75">THE OUD COLLECTION</text><text x="90" y="290" font-family="Georgia,serif" font-size="66" fill="#fff">Deep. Warm.</text><text x="90" y="365" font-family="Georgia,serif" font-size="66" fill="#fff">Unmistakable.</text><text x="95" y="424" font-family="Arial,sans-serif" font-size="20" fill="#fff" opacity=".8">Smoky woods, glowing amber, and rich resins.</text></svg>
