<svg xmlns="http://www.w3.org/2000/svg" viewBox="0 0 800 800" role="img" aria-labelledby="title desc">
  <title id="title">AMBER NIGHT placeholder product image</title>
  <desc id="desc">A stylized perfume bottle for AMBER NIGHT by MAISON.</desc>
  <defs>
    <linearGradient id="background" x1="0" y1="0" x2="1" y2="1"><stop stop-color="#3a2a35"/><stop offset="1" stop-color="#b76f41"/></linearGradient>
    <linearGradient id="glass" x1="0" y1="0" x2="1" y2="1"><stop stop-color="#fff" stop-opacity=".82"/><stop offset=".5" stop-color="#a24f24" stop-opacity=".9"/><stop offset="1" stop-color="#fff" stop-opacity=".28"/></linearGradient>
    <filter id="shadow" x="-30%" y="-30%" width="160%" height="180%"><feGaussianBlur in="SourceAlpha" stdDeviation="18"/><feOffset dy="22"/><feComponentTransfer><feFuncA type="linear" slope=".28"/></feComponentTransfer><feMerge><feMergeNode/><feMergeNode in="SourceGraphic"/></feMerge></filter>
  </defs>
  <rect width="800" height="800" fill="url(#background)"/>
  <circle cx="118" cy="130" r="175" fill="#fff" opacity=".12"/><circle cx="690" cy="630" r="240" fill="#fff" opacity=".1"/>
  <ellipse cx="400" cy="677" rx="176" ry="35" fill="#16120f" opacity=".18"/>
  <g filter="url(#shadow)">
    <rect x="348" y="126" width="104" height="84" rx="12" fill="#2b2724"/>
    <rect x="330" y="102" width="140" height="42" rx="10" fill="#d8c1a0"/>
    <path d="M265 228Q265 202 291 202H509Q535 202 535 228V610Q535 640 505 640H295Q265 640 265 610Z" fill="url(#glass)" stroke="#fff" stroke-opacity=".48" stroke-width="5"/>
    <path d="M290 245Q310 224 337 224H370V618H302Q290 618 290 606Z" fill="#fff" opacity=".18"/>
    <rect x="299" y="373" width="202" height="151" rx="4" fill="#f7f1e7" opacity=".94"/>
    <text x="400" y="423" text-anchor="middle" font-family="Georgia, serif" font-size="25" letter-spacing="5" fill="#2f2824">MAISON</text>
    <path d="M329 444H471" stroke="#8d4925" stroke-width="3"/>
    <text x="400" y="478" text-anchor="middle" font-family="Arial, sans-serif" font-size="27" font-weight="700" letter-spacing="2" fill="#2f2824">AMBER NIGHT</text>
  </g>
  <text x="400" y="744" text-anchor="middle" font-family="Arial, sans-serif" font-size="18" letter-spacing="4" fill="#fff" opacity=".88">DUMMY FRAGRANCE IMAGE</text>
</svg>
